<svg xmlns="http://www.w3.org/2000/svg" width="60" height="62" viewBox="0 0 60 62" fill="none">
  <path fill-rule="evenodd" clip-rule="evenodd" d="M58.1913 5.52982C49.4949 1.96432 39.9734 0 29.99 0C20.0065 0 10.485 1.96432 1.78863 5.52982C-4.92754 27.1539 7.79523 56.3876 29.99 62C52.1847 56.3876 64.9239 27.1539 58.1913 5.52982ZM36.2606 32.0069C38.2078 30.2737 39.4289 27.7646 39.4289 24.942C39.4289 19.7258 35.2045 15.5 29.99 15.5C24.7754 15.5 20.551 19.7258 20.551 24.942C20.551 27.7481 21.7721 30.2737 23.7193 32.0069L22.1352 46.5C24.6434 47.1768 27.2672 47.5399 29.9734 47.5399C32.6797 47.5399 35.32 47.1768 37.8117 46.5L36.2441 32.0069H36.2606Z" fill="url(#paint0_linear_186_836)"/>
  <path fill-rule="evenodd" clip-rule="evenodd" d="M29.9899 0C20.0064 0 10.485 1.96432 1.7886 5.52982C-2.2378 18.4712 0.715994 34.1528 8.50477 45.8562C7.48167 26.6422 24.6269 16.7545 25.914 16.4409C27.1516 15.8466 28.5378 15.5 30.0064 15.5C31.4751 15.5 32.8612 15.8301 34.0988 16.4409C35.386 16.7545 52.5312 26.6422 51.5081 45.8562C59.2968 34.1528 62.2341 18.4712 58.2077 5.52982C49.4949 1.96432 39.9734 0 29.9899 0Z" fill="url(#paint1_linear_186_836)"/>
  <path fill-rule="evenodd" clip-rule="evenodd" d="M29.9903 47.5234C27.2841 47.5234 24.6438 47.1603 22.1521 46.4835C22.1521 46.4835 21.0134 56.6187 23.3732 59.4909C25.4689 60.5639 27.6801 61.4057 30.0068 61.9835C32.3171 61.3892 34.5448 60.5474 36.6405 59.4909C39.0002 56.6022 37.8451 46.4835 37.8451 46.4835C35.3534 47.1603 32.7131 47.5234 30.0068 47.5234H29.9903Z" fill="#003780"/>
  <path fill-rule="evenodd" clip-rule="evenodd" d="M0.666701 25.8498C7.20135 2.11289 52.7789 2.11289 59.3301 25.8498C60.4852 18.9499 60.1881 11.9015 58.208 5.51331C49.4951 1.96432 39.9736 0 29.9901 0C20.0066 0 10.4852 1.96432 1.78881 5.52982C-0.191385 11.9015 -0.488415 18.9499 0.666701 25.8498Z" fill="#5EFAF7"/>
  <path fill-rule="evenodd" clip-rule="evenodd" d="M34.0826 15.3514C32.845 14.7572 31.4589 14.4105 29.9902 14.4105C28.5216 14.4105 27.1354 14.7407 25.8978 15.3514C24.6437 15.665 8.12553 25.1895 8.45556 43.6608C8.7856 25.8993 24.6602 16.738 25.8978 16.4409C27.1354 15.8466 28.5216 15.5 29.9902 15.5C31.4589 15.5 32.845 15.8301 34.0826 16.4409C35.3202 16.738 51.2113 25.8993 51.5249 43.6608C51.8549 25.173 35.3367 15.6485 34.0826 15.3514Z" fill="#5EFAF7"/>
  <defs>
    <linearGradient id="paint0_linear_186_836" x1="30.5334" y1="21.3984" x2="30.5334" y2="70.0849" gradientUnits="userSpaceOnUse">
      <stop stop-color="#003780"/>
      <stop offset="1" stop-color="#23A4C9"/>
    </linearGradient>
    <linearGradient id="paint1_linear_186_836" x1="30.5333" y1="46.0208" x2="30.5333" y2="-17.1365" gradientUnits="userSpaceOnUse">
      <stop stop-color="#0067B0"/>
      <stop offset="1" stop-color="#51F5EA"/>
    </linearGradient>
  </defs>
</svg>